PathFileType	4	(X/Y/Z)	/Users/mathieubourgeois/Desktop/Analyse/Traitement/Sujet_06/Data/Transformed_Sujet_06_velo_60.trc
DataRate	CameraRate	NumFrames	NumMarkers	Units	OrigDataRate	OrigDataStartFrame	OrigNumFrames
120.000000	120.000000	4	36	mm	120.000000	1634	1868
Frame#	Time	RFHD			RANE			STRN			LANI			LKNE			T10			RHUM			RWRB			C7			LFWT			LTOE			RTOE			LWRA			LBWT			RBWT			RFWT			LKNI			RKNI			RKNE			LANE			RANI			LHEE			RHEE			LHUM			LRAD			RRAD			RWRA			LWRB			LFHD			LBHD			RBHD			RSHO			LSHO			CLAV			LCAR			RCAR			
		X1	Y1	Z1	X2	Y2	Z2	X3	Y3	Z3	X4	Y4	Z4	X5	Y5	Z5	X6	Y6	Z6	X7	Y7	Z7	X8	Y8	Z8	X9	Y9	Z9	X10	Y10	Z10	X11	Y11	Z11	X12	Y12	Z12	X13	Y13	Z13	X14	Y14	Z14	X15	Y15	Z15	X16	Y16	Z16	X17	Y17	Z17	X18	Y18	Z18	X19	Y19	Z19	X20	Y20	Z20	X21	Y21	Z21	X22	Y22	Z22	X23	Y23	Z23	X24	Y24	Z24	X25	Y25	Z25	X26	Y26	Z26	X27	Y27	Z27	X28	Y28	Z28	X29	Y29	Z29	X30	Y30	Z30	X31	Y31	Z31	X32	Y32	Z32	X33	Y33	Z33	X34	Y34	Z34	X35	Y35	Z35	X36	Y36	Z36	

1635	13.61666666666667	251.8464050292969	1367.541381835938	115.3002395629882	-196.4347381591797	340.9621276855469	197.0361175537109	-46.97388458251954	1198.535888671875	46.93400573730461	74.08001708984375	499.0540466308594	-50.57145309448244	129.5796356201172	885.0059204101562	-108.2817611694336	-207.2343292236328	1350.547485351562	53.22114181518543	185.3589782714843	1126.3095703125	221.4215545654297	389.1569213867188	1008.557312011719	181.8862609863281	29.60935020446777	1457.001708984375	51.74131774902335	-182.5189666748047	1110.130493164062	-56.4811668395997	226.4651947021485	421.0946655273438	-124.0516204833984	-69.71209716796878	198.9864654541016	198.7596435546875	411.9440612792969	1027.266723632812	-140.5816497802734	-345.8302612304688	1139.431762695312	-5.787625312805289	-341.7534790039062	1135.19189453125	104.0021438598632	-184.8841400146485	1101.170532226562	154.0981292724609	159.0778961181641	835.8214111328125	-16.19479751586917	17.164981842041	643.2457275390625	129.1631622314453	-4.15037918090823	693.4337768554688	220.26416015625	46.17084884643556	497.7090454101562	-129.6891479492188	-160.4446563720703	336.4415283203125	123.5923233032226	-6.710227489471425	486.3880310058594	-89.04262542724612	-246.103012084961	351.4299926757812	147.1067352294921	183.556884765625	1125.268920898438	-188.2628631591797	221.7381896972657	1174.108642578125	-202.9699707031251	226.6335144042968	1159.464477539062	264.6302490234374	422.0473022460937	1027.469604492188	234.0617370605469	429.721435546875	1031.451904296875	-201.0764770507812	249.2750244140625	1359.886596679688	-28.39532661437993	185.9733123779297	1496.441284179688	-34.01969909667976	192.1580810546875	1522.797485351562	92.2586593627929	51.26670455932615	1410.537231445312	186.5007324218749	27.526424407959	1401.651977539062	-106.8064727783204	35.90980529785156	1321.316528320312	46.31632995605462	486.9342956542969	1045.568969726562	-125.564582824707	484.0543518066406	1050.652709960938	160.5227966308594	
1636	13.625	251.8126983642578	1367.689819335938	115.7110519409179	-199.5795288085938	349.3800048828125	197.1429901123046	-46.69269943237305	1198.542724609375	47.14629745483391	77.80889129638672	490.4766845703125	-50.94202041625979	128.3461456298828	878.2612915039062	-108.9049758911133	-207.1791839599609	1350.490356445312	53.26027679443348	185.4579315185547	1126.34765625	221.5908813476562	389.1885070800781	1008.547180175781	181.8822784423828	29.64600181579589	1457.082763671875	51.95153427124015	-182.2956695556641	1110.005615234375	-56.65474700927744	231.1259307861328	413.9856262207031	-124.2136688232422	-74.60704040527347	205.6812896728516	199.3995056152344	412.0536193847656	1027.21923828125	-140.6106872558594	-345.5845336914062	1139.327514648438	-5.958212375640982	-341.5938110351562	1135.219604492188	103.8671569824218	-184.6737670898438	1101.282470703125	153.8734283447265	158.0865173339844	828.2217407226562	-16.58973503112796	20.05042457580565	646.63916015625	129.9245910644531	-0.1825059056282314	696.86181640625	220.7076110839843	49.95643615722658	488.7256469726562	-130.0066680908203	-167.8093719482422	342.3335266113281	122.758071899414	-2.268259286880482	476.4807739257812	-88.89534759521487	-249.0361938476563	359.9395751953125	146.5701293945312	183.686752319336	1125.295166015625	-188.2730255126953	221.8473815917969	1174.134887695312	-203.0210571289063	226.7100524902343	1159.4814453125	264.7193908691406	422.1067199707031	1027.458862304688	234.0361480712891	429.7885437011719	1031.434448242188	-201.1338195800781	249.4174957275391	1360.010131835938	-27.96038055419927	186.1333465576172	1496.562377929688	-33.65043640136726	192.19775390625	1522.915405273438	92.62252044677727	51.32490921020506	1410.603393554688	186.7692108154296	27.66906547546388	1401.683959960938	-106.6557846069337	36.06185913085937	1321.414672851562	46.55605316162102	487.01513671875	1045.524780273438	-125.6164855957031	484.0913391113281	1050.644287109375	160.4759216308594	
1637	13.63333333333333	251.8069458007812	1367.830444335938	116.1881713867187	-202.2496490478516	358.0596008300781	197.3164062499999	-46.40428924560548	1198.566528320312	47.37701034545891	81.52504730224609	482.0869750976562	-51.54729461669924	126.618408203125	870.970458984375	-109.3678283691407	-207.1115875244141	1350.435546875	53.31429290771473	185.5596618652343	1126.393798828125	221.7069244384765	389.2281494140625	1008.561096191406	181.8728179931641	29.87601470947265	1456.835693359375	51.96972656249991	-182.0395202636719	1109.903076171875	-56.85266113281259	235.2044677734375	407.0474548339844	-124.3355560302734	-79.29532623291018	212.5570373535156	199.54248046875	412.1482238769531	1027.230102539062	-140.71484375	-345.2904968261719	1139.225708007812	-6.099991321563834	-341.416015625	1135.25146484375	103.7602386474608	-184.4945983886719	1101.400146484375	153.6902770996093	156.2932434082031	820.467041015625	-17.00869369506839	23.0515670776367	650.3654174804688	130.6503448486328	4.021690368652317	700.4862060546875	221.1747894287109	53.37620925903322	479.552734375	-130.4134979248047	-166.7610778808594	352.5451965332031	123.6293334960937	1.352132558822643	466.8017883300781	-89.32795715332034	-251.9063110351563	370.0612182617188	147.6985931396484	183.8152008056641	1125.341552734375	-188.3917846679688	221.9806213378907	1174.177856445312	-203.1381835937501	226.8378601074218	1159.532470703125	264.8139953613281	422.1842956542968	1027.453002929688	234.0131072998047	429.8821105957031	1031.382446289062	-201.2041625976562	249.5895538330078	1360.1513671875	-27.53560638427739	186.2738800048828	1496.704956054688	-33.29716491699226	192.1857147216797	1523.064453125	93.00584411621087	51.40502548217771	1410.72900390625	187.0525817871093	27.84126853942873	1401.737182617188	-106.4797897338868	37.00781249999999	1320.939697265625	45.9261169433593	487.097412109375	1045.466430664062	-125.6795043945313	484.1512756347656	1050.629272460938	160.4155120849609	
1638	13.64166666666667	251.834243774414	1368.027709960938	116.6131973266601	-204.4546508789063	366.9595947265625	197.5319671630859	-46.04701232910157	1198.569946289062	47.63075256347648	85.99861145019531	471.9720764160156	-51.65565490722658	124.3204727172852	863.0567016601562	-109.7394790649414	-207.0071258544922	1350.402465820312	53.31327056884754	185.6652069091797	1126.5	221.851806640625	389.3068542480469	1008.608276367188	181.8501129150391	29.92348670959472	1456.932861328125	52.17315673828116	-181.7794342041016	1109.791137695312	-56.99489974975595	239.0133819580078	399.3342590332031	-124.4946441650391	-83.85289001464847	219.4140319824219	198.7735748291016	412.2305908203125	1027.216552734375	-140.8754730224609	-344.9842834472656	1139.139770507812	-6.289194583892935	-341.2276306152344	1135.2939453125	103.6445770263671	-184.2595672607422	1101.5234375	153.4643249511718	153.8482971191406	812.5971069335938	-17.47049903869632	26.21791839599608	654.3145141601562	131.2917022705078	8.258976936340305	704.3850708007812	221.7316436767578	56.48558425903322	470.2400817871094	-130.7405853271485	-169.1409606933594	361.0555725097656	123.7455062866211	4.890013217926036	456.5293273925781	-89.58973693847659	-254.0629119873047	379.7862243652344	148.0519561767578	183.9552459716797	1125.40869140625	-188.5870819091797	222.1513977050782	1174.223876953125	-203.2970123291016	227.0182189941406	1159.624633789062	264.9108276367187	422.2786865234374	1027.48095703125	233.9757843017578	429.9656066894531	1031.298828125	-201.3086853027344	249.7647094726562	1360.319946289062	-27.08143424987798	186.4046630859375	1496.8564453125	-32.9667053222657	192.1689910888672	1523.236938476562	93.37103271484368	51.53641128540037	1410.826049804688	187.3104705810546	28.0685501098633	1401.769165039062	-106.2685165405274	37.28428649902343	1321.029907226562	46.12909317016594	487.168701171875	1045.404174804688	-125.7832489013672	484.2124328613281	1050.606201171875	160.3432769775391	
